<?xml version="1.0" encoding="utf-8"?>
<!-- Generator: Adobe Illustrator 17.1.0, SVG Export Plug-In . SVG Version: 6.00 Build 0)  -->
<!DOCTYPE svg PUBLIC "-//W3C//DTD SVG 1.1 Basic//EN" "http://www.w3.org/Graphics/SVG/1.1/DTD/svg11-basic.dtd">
<svg version="1.1" baseProfile="basic" id="Arrow_1_"
	 xmlns="http://www.w3.org/2000/svg" xmlns:xlink="http://www.w3.org/1999/xlink" x="0px" y="0px" width="500px" height="500px"
	 viewBox="0 0 500 500" xml:space="preserve">
  <metadata>
    <?xpacket begin="﻿" id="W5M0MpCehiHzreSzNTczkc9d"?>
    <x:xmpmeta xmlns:x="adobe:ns:meta/" x:xmptk="Adobe XMP Core 5.6-c011 79.156380, 2014/06/19-23:40:37        ">
     <rdf:RDF xmlns:rdf="http://www.w3.org/1999/02/22-rdf-syntax-ns#">
      <rdf:Description rdf:about=""
        xmlns:xmpMM="http://ns.adobe.com/xap/1.0/mm/"
        xmlns:stEvt="http://ns.adobe.com/xap/1.0/sType/ResourceEvent#"
        xmlns:xmp="http://ns.adobe.com/xap/1.0/"
        xmlns:xmpRights="http://ns.adobe.com/xap/1.0/rights/"
        xmlns:dc="http://purl.org/dc/elements/1.1/"
       xmpMM:DocumentID="xmp.did:c6a927dd52a6556f1e8e9a78dc2baa7a"
       xmpMM:OriginalDocumentID="xmp.did:c6a927dd52a6556f1e8e9a78dc2baa7a"
       xmpMM:InstanceID="xmp.iid:c6a927dd52a6556f1e8e9a78dc2baa7a"
       xmp:ModifyDate="2015-04-15T11:51:49+02:00"
       xmp:MetadataDate="2015-04-15T11:51:49+02:00"
       xmpRights:Marked="True"
       xmpRights:WebStatement="http://www.adobe.com/legal/general-terms.html">
       <xmpMM:History>
        <rdf:Seq>
         <rdf:li
          stEvt:action="saved"
          stEvt:instanceID="xmp.iid:c6a927dd52a6556f1e8e9a78dc2baa7a"
          stEvt:when="2015-04-15T11:51:49+02:00"/>
        </rdf:Seq>
       </xmpMM:History>
       <xmpRights:UsageTerms>
        <rdf:Alt>
         <rdf:li xml:lang="x-default">This work is licensed under the Adobe General Terms of Use http://www.adobe.com/legal/general-terms.html.</rdf:li>
        </rdf:Alt>
       </xmpRights:UsageTerms>
       <dc:publisher>
        <rdf:Bag>
         <rdf:li>Adobe Systems Incorporated</rdf:li>
        </rdf:Bag>
       </dc:publisher>
      </rdf:Description>
     </rdf:RDF>
    </x:xmpmeta>
    <?xpacket end="r"?>
  </metadata>
<path fill="#231F20" d="M152.2,0c-11.2,0-20.3,9.1-20.3,20.3v23.1H42c-11.2,0-20.3,9.1-20.3,20.3v127.6v288.4
	c0,11.2,9.1,20.3,20.3,20.3H458c11.2,0,20.3-9.1,20.3-20.3V191.3V63.7c0-11.2-9.1-20.3-20.3-20.3h-89.9V20.3
	C368.1,9.1,359,0,347.8,0s-20.3,9.1-20.3,20.3v23.1h-155V20.3C172.5,9.1,163.4,0,152.2,0z M437.7,459.4H62.2V211.6h375.5
	L437.7,459.4L437.7,459.4z M327.5,84v23.1c0,11.2,9.1,20.3,20.3,20.3c11.2,0,20.3-9.1,20.3-20.3V84h69.6v87H62.2V84h69.6v23.1
	c0,11.2,9.1,20.3,20.3,20.3s20.3-9.1,20.3-20.3V84H327.5z"/>
</svg>
